<svg id="Layer_1" enable-background="new 0 0 256 256" height="512" viewBox="0 0 256 256" width="512" xmlns="http://www.w3.org/2000/svg"><path d="m189.095 52.536c-4.271 0-8.4.602-12.323 1.705-1.573-25.802-22.802-46.241-48.772-46.241s-47.199 20.439-48.772 46.242c-3.923-1.103-8.052-1.705-12.323-1.705-25.306 0-45.821 20.699-45.821 46.232s20.515 46.231 45.821 46.231h122.19c25.306 0 45.821-20.699 45.821-46.232s-20.515-46.232-45.821-46.232z" fill="#e0ebfc"/><path d="m189.095 147h-122.19c-26.369 0-47.821-21.637-47.821-48.231 0-26.596 21.453-48.232 47.821-48.232 3.536 0 7.067.398 10.529 1.187 2.775-25.829 24.542-45.724 50.566-45.724s47.791 19.894 50.567 45.722c3.461-.787 6.992-1.186 10.527-1.186 26.369 0 47.821 21.637 47.821 48.232.001 26.595-21.451 48.232-47.82 48.232zm-122.19-92.464c-24.163 0-43.821 19.843-43.821 44.232s19.658 44.232 43.821 44.232h122.19c24.163 0 43.821-19.842 43.821-44.231s-19.658-44.232-43.821-44.232c-3.969 0-7.933.549-11.781 1.631-.583.161-1.208.054-1.699-.296-.493-.35-.802-.904-.838-1.508-1.517-24.878-22.064-44.364-46.777-44.364-24.712 0-45.259 19.486-46.776 44.363-.037.604-.345 1.158-.837 1.508-.493.351-1.118.458-1.7.296-3.85-1.082-7.813-1.631-11.782-1.631z" fill="#3762cc"/><circle cx="36.631" cy="163.28" fill="#ffea92" r="6.7"/><path d="m128 160.031h-85.511c.535.963.842 2.069.842 3.249s-.307 2.286-.842 3.249h85.511c1.794 0 3.249-1.455 3.249-3.249s-1.455-3.249-3.249-3.249z" fill="#a4c9ff"/><path d="m113.381 111.332h-40.397c-.895 0-1.624-.729-1.624-1.624v-15.3c0-.075-.017-.146-.022-.22-.957.527-2.057.829-3.227.829s-2.269-.301-3.226-.828c-.005.074-.022.144-.022.219v15.3c0 4.478 3.644 8.122 8.122 8.122h40.397c.895 0 1.624.729 1.624 1.624v20.656c0 .895-.729 1.624-1.624 1.624h-60.914c-.895 0-1.624-.729-1.624-1.624v-13.007c-.963.535-2.069.842-3.249.842s-2.286-.307-3.249-.842v13.007c0 4.478 3.644 8.122 8.122 8.122h60.913c4.478 0 8.122-3.644 8.122-8.122v-20.656c0-4.479-3.644-8.122-8.122-8.122z" fill="#a4c9ff"/><circle cx="47.595" cy="121.245" fill="#ffea92" r="6.7"/><circle cx="68.111" cy="88.316" fill="#ffea92" r="6.7"/><path d="m113.41 177.456h-60.913c-4.478 0-8.122 3.644-8.122 8.122v13.579c.963-.535 2.069-.842 3.249-.842s2.286.307 3.249.842v-13.579c0-.895.729-1.624 1.624-1.624h60.913c.895 0 1.624.729 1.624 1.624v20.656c0 .895-.729 1.624-1.624 1.624h-40.397c-4.478 0-8.122 3.644-8.122 8.122v9.442c.963-.535 2.069-.842 3.248-.842s2.286.307 3.249.842v-9.442c0-.895.729-1.624 1.624-1.624h40.397c4.478 0 8.122-3.644 8.122-8.122v-20.656c0-4.478-3.643-8.122-8.121-8.122z" fill="#a4c9ff"/><path d="m64.891 227.423c-.351 0-.701-.092-1.014-.276-.611-.359-.986-1.015-.986-1.724v-9.442c0-5.581 4.541-10.121 10.122-10.121h40.021v-19.905h-60.161v13.203c0 .708-.375 1.364-.985 1.724-.609.358-1.364.368-1.985.025-1.413-.784-3.144-.784-4.557 0-.62.342-1.375.332-1.985-.025-.61-.359-.985-1.016-.985-1.724v-13.579c0-5.581 4.541-10.122 10.122-10.122h60.913c5.581 0 10.122 4.541 10.122 10.122v20.656c0 5.581-4.541 10.122-10.122 10.122h-40.022v9.066c0 .709-.375 1.364-.986 1.724s-1.367.367-1.986.024c-1.398-.777-3.156-.776-4.554 0-.302.168-.637.252-.972.252zm3.249-4.842c.419 0 .836.03 1.249.091v-6.691c0-1.998 1.625-3.624 3.624-3.624h40.397c3.375 0 6.122-2.746 6.122-6.122v-20.656c0-3.376-2.746-6.122-6.122-6.122h-60.913c-3.375 0-6.122 2.746-6.122 6.122v10.828c.825-.121 1.671-.121 2.498 0v-10.828c0-1.998 1.625-3.624 3.624-3.624h60.913c1.999 0 3.624 1.626 3.624 3.624v20.656c0 1.999-1.625 3.625-3.624 3.625h-40.397c-3.375 0-6.122 2.746-6.122 6.121v6.691c.413-.061.83-.091 1.249-.091z" fill="#3762cc"/><circle cx="47.624" cy="205.016" fill="#ffea92" r="6.7"/><circle cx="68.14" cy="231.281" fill="#ffea92" r="6.7"/><g fill="#3762cc"><path d="m47.624 213.717c-4.797 0-8.7-3.903-8.7-8.701 0-4.797 3.903-8.7 8.7-8.7s8.701 3.903 8.701 8.7c-.001 4.797-3.904 8.701-8.701 8.701zm0-13.402c-2.592 0-4.7 2.108-4.7 4.7s2.108 4.701 4.7 4.701 4.701-2.109 4.701-4.701-2.11-4.7-4.701-4.7z"/><path d="m68.14 239.981c-4.797 0-8.701-3.903-8.701-8.7 0-4.798 3.903-8.701 8.701-8.701s8.7 3.903 8.7 8.701c0 4.797-3.903 8.7-8.7 8.7zm0-13.401c-2.592 0-4.701 2.109-4.701 4.701s2.109 4.7 4.701 4.7 4.7-2.108 4.7-4.7-2.109-4.701-4.7-4.701z"/><path d="m36.631 171.98c-4.797 0-8.701-3.903-8.701-8.7s3.903-8.7 8.701-8.7 8.7 3.903 8.7 8.7-3.903 8.7-8.7 8.7zm0-13.4c-2.592 0-4.701 2.108-4.701 4.7s2.109 4.7 4.701 4.7 4.7-2.108 4.7-4.7-2.108-4.7-4.7-4.7z"/><path d="m128 168.528h-85.511c-.708 0-1.364-.375-1.724-.985-.359-.611-.369-1.366-.025-1.985.392-.706.59-1.472.59-2.277 0-.807-.199-1.572-.59-2.277-.344-.619-.335-1.375.024-1.985.359-.611 1.015-.986 1.724-.986h85.512c2.895 0 5.249 2.354 5.249 5.249 0 2.892-2.354 5.246-5.249 5.246zm-82.76-4h82.76c.688 0 1.249-.56 1.249-1.248s-.561-1.249-1.249-1.249h-82.76c.06.413.091.83.091 1.249 0 .418-.03.836-.091 1.248z"/><path d="m113.381 150.231h-60.913c-5.582 0-10.122-4.54-10.122-10.121v-13.007c0-.708.375-1.364.985-1.724.61-.358 1.365-.367 1.985-.025 1.412.782 3.143.782 4.557 0 .619-.343 1.375-.334 1.985.025s.985 1.016.985 1.724v12.631h60.162v-19.905h-40.021c-5.581 0-10.122-4.541-10.122-10.122v-15.3c0-.138.012-.271.03-.402.046-.682.434-1.268 1.034-1.596.599-.329 1.323-.303 1.921.026 1.393.766 3.136.764 4.524 0 .597-.328 1.32-.33 1.919-.006s.991.932 1.041 1.611c.015.093.028.228.028.366v14.925h40.021c5.581 0 10.122 4.54 10.122 10.121v20.657c0 5.582-4.54 10.122-10.121 10.122zm-67.035-20.377v10.256c0 3.375 2.747 6.121 6.122 6.121h60.913c3.375 0 6.122-2.746 6.122-6.121v-20.657c0-3.375-2.746-6.121-6.122-6.121h-40.397c-1.999 0-3.624-1.626-3.624-3.625v-12.781c-.826.121-1.672.121-2.498 0v12.781c0 3.376 2.746 6.122 6.122 6.122h40.397c1.999 0 3.625 1.626 3.625 3.624v20.657c0 1.998-1.626 3.624-3.625 3.624h-60.913c-1.999 0-3.625-1.626-3.625-3.624v-10.256c-.824.122-1.671.122-2.497 0z"/><path d="m47.595 129.945c-4.797 0-8.701-3.903-8.701-8.7 0-4.798 3.903-8.701 8.701-8.701s8.7 3.903 8.7 8.701c0 4.797-3.902 8.7-8.7 8.7zm0-13.401c-2.592 0-4.701 2.109-4.701 4.701s2.109 4.7 4.701 4.7 4.7-2.108 4.7-4.7-2.108-4.701-4.7-4.701z"/><path d="m68.11 97.017c-4.797 0-8.7-3.903-8.7-8.7 0-4.798 3.903-8.701 8.7-8.701s8.701 3.903 8.701 8.701c0 4.796-3.903 8.7-8.701 8.7zm0-13.402c-2.592 0-4.7 2.109-4.7 4.701s2.108 4.7 4.7 4.7 4.701-2.108 4.701-4.7-2.109-4.701-4.701-4.701z"/></g><circle cx="219.369" cy="163.28" fill="#ffea92" r="6.7"/><path d="m212.669 163.28c0-1.179.307-2.286.842-3.249h-85.511c-1.794 0-3.249 1.455-3.249 3.249s1.455 3.249 3.249 3.249h85.511c-.535-.963-.842-2.07-.842-3.249z" fill="#a4c9ff"/><circle cx="208.405" cy="121.245" fill="#ffea92" r="6.7"/><circle cx="187.889" cy="88.316" fill="#ffea92" r="6.7"/><path d="m208.405 127.945c-1.179 0-2.286-.307-3.249-.842v13.007c0 .895-.729 1.624-1.624 1.624h-60.913c-.895 0-1.624-.729-1.624-1.624v-20.656c0-.895.729-1.624 1.624-1.624h40.397c4.478 0 8.122-3.644 8.122-8.122v-15.3c0-.075-.017-.145-.022-.22-.957.527-2.057.829-3.227.829s-2.269-.301-3.226-.828c-.005.074-.022.144-.022.219v15.3c0 .895-.729 1.624-1.624 1.624h-40.397c-4.478 0-8.122 3.644-8.122 8.122v20.656c0 4.478 3.644 8.122 8.122 8.122h60.913c4.478 0 8.122-3.644 8.122-8.122v-13.007c-.964.535-2.071.842-3.25.842z" fill="#a4c9ff"/><path d="m219.369 171.98c-4.797 0-8.7-3.903-8.7-8.7s3.903-8.7 8.7-8.7 8.7 3.903 8.7 8.7-3.903 8.7-8.7 8.7zm0-13.4c-2.592 0-4.7 2.108-4.7 4.7s2.108 4.7 4.7 4.7 4.7-2.108 4.7-4.7-2.108-4.7-4.7-4.7z" fill="#3762cc"/><path d="m213.511 168.528h-85.511c-2.894 0-5.249-2.354-5.249-5.248 0-2.895 2.354-5.249 5.249-5.249h85.511c.709 0 1.364.375 1.724.986.359.61.369 1.366.024 1.985-.392.704-.59 1.471-.59 2.277s.198 1.572.59 2.276c.345.619.335 1.375-.024 1.985-.36.613-1.015.988-1.724.988zm-85.511-6.497c-.688 0-1.249.561-1.249 1.249s.56 1.248 1.249 1.248h82.76c-.061-.412-.091-.83-.091-1.248 0-.419.03-.836.091-1.249z" fill="#3762cc"/><path d="m208.405 129.945c-4.798 0-8.701-3.903-8.701-8.7 0-4.798 3.903-8.701 8.701-8.701 4.797 0 8.7 3.903 8.7 8.701 0 4.797-3.903 8.7-8.7 8.7zm0-13.401c-2.592 0-4.701 2.109-4.701 4.701s2.109 4.7 4.701 4.7 4.7-2.108 4.7-4.7-2.108-4.701-4.7-4.701z" fill="#3762cc"/><path d="m187.889 97.017c-4.797 0-8.7-3.903-8.7-8.7 0-4.798 3.903-8.701 8.7-8.701s8.7 3.903 8.7 8.701c0 4.796-3.903 8.7-8.7 8.7zm0-13.402c-2.592 0-4.7 2.109-4.7 4.701s2.108 4.7 4.7 4.7 4.7-2.108 4.7-4.7-2.109-4.701-4.7-4.701z" fill="#3762cc"/><path d="m203.532 150.231h-60.913c-5.581 0-10.122-4.54-10.122-10.121v-20.657c0-5.581 4.541-10.121 10.122-10.121h40.021v-14.925c0-.136.012-.267.029-.396.046-.682.435-1.271 1.034-1.599.601-.327 1.323-.305 1.922.024 1.381.758 3.146.759 4.524-.001.598-.329 1.325-.33 1.925-.003.601.329.991.941 1.036 1.624.014.078.026.212.026.351v15.3c0 5.581-4.541 10.122-10.122 10.122h-40.021v19.905h60.161v-12.631c0-.708.375-1.364.985-1.724s1.365-.368 1.985-.025c1.402.777 3.154.777 4.556.001.618-.345 1.372-.336 1.985.024.61.359.985 1.015.985 1.724v13.007c.003 5.581-4.537 10.121-10.118 10.121zm-60.913-36.899c-3.376 0-6.122 2.746-6.122 6.121v20.657c0 3.375 2.746 6.121 6.122 6.121h60.913c3.375 0 6.121-2.746 6.121-6.121v-10.256c-.824.122-1.671.122-2.497 0v10.256c0 1.998-1.626 3.624-3.624 3.624h-60.913c-1.998 0-3.624-1.626-3.624-3.624v-20.657c0-1.998 1.626-3.624 3.624-3.624h40.396c3.376 0 6.122-2.746 6.122-6.122v-12.781c-.825.121-1.672.121-2.497 0v12.781c0 1.999-1.626 3.625-3.625 3.625z" fill="#3762cc"/><path d="m203.545 177.456h-60.913c-4.478 0-8.122 3.644-8.122 8.122v20.656c0 4.478 3.644 8.122 8.122 8.122h40.397c.895 0 1.624.729 1.624 1.624v9.442c.963-.535 2.069-.842 3.249-.842 1.179 0 2.286.307 3.248.842v-9.442c0-4.478-3.644-8.122-8.122-8.122h-40.397c-.895 0-1.624-.729-1.624-1.624v-20.656c0-.895.729-1.624 1.624-1.624h60.913c.895 0 1.624.729 1.624 1.624v13.579c.963-.535 2.069-.842 3.249-.842s2.286.307 3.249.842v-13.579c.001-4.478-3.643-8.122-8.121-8.122z" fill="#a4c9ff"/><circle cx="187.902" cy="231.281" fill="#ffea92" r="6.7"/><circle cx="208.418" cy="205.016" fill="#ffea92" r="6.7"/><path d="m191.15 227.423c-.335 0-.67-.084-.973-.252-1.396-.777-3.154-.779-4.553 0-.619.345-1.374.337-1.985-.024-.611-.359-.986-1.015-.986-1.724v-9.066h-40.021c-5.581 0-10.121-4.541-10.121-10.122v-20.656c0-5.581 4.54-10.122 10.121-10.122h60.913c5.581 0 10.122 4.541 10.122 10.122v13.579c0 .708-.375 1.364-.985 1.724-.61.358-1.365.368-1.985.025-1.412-.783-3.145-.783-4.557 0-.621.342-1.376.332-1.985-.025-.61-.359-.985-1.016-.985-1.724v-13.203h-60.161v19.905h40.021c5.581 0 10.121 4.54 10.121 10.121v9.442c0 .709-.375 1.365-.986 1.724-.313.184-.664.276-1.015.276zm-48.518-47.967c-3.375 0-6.121 2.746-6.121 6.122v20.656c0 3.376 2.746 6.122 6.121 6.122h40.397c1.998 0 3.624 1.626 3.624 3.624v6.691c.826-.121 1.673-.121 2.497 0v-6.691c0-3.375-2.746-6.121-6.121-6.121h-40.397c-1.998 0-3.624-1.626-3.624-3.625v-20.656c0-1.998 1.626-3.624 3.624-3.624h60.913c1.998 0 3.624 1.626 3.624 3.624v10.828c.826-.121 1.672-.121 2.498 0v-10.828c0-3.376-2.746-6.122-6.122-6.122z" fill="#3762cc"/><path d="m187.902 239.981c-4.797 0-8.7-3.903-8.7-8.7 0-4.798 3.903-8.701 8.7-8.701s8.7 3.903 8.7 8.701c.001 4.797-3.903 8.7-8.7 8.7zm0-13.401c-2.592 0-4.7 2.109-4.7 4.701s2.108 4.7 4.7 4.7 4.7-2.108 4.7-4.7-2.108-4.701-4.7-4.701z" fill="#3762cc"/><path d="m208.418 213.717c-4.797 0-8.7-3.903-8.7-8.701 0-4.797 3.903-8.7 8.7-8.7s8.7 3.903 8.7 8.7-3.903 8.701-8.7 8.701zm0-13.402c-2.592 0-4.7 2.108-4.7 4.7s2.108 4.701 4.7 4.701 4.7-2.109 4.7-4.701-2.108-4.7-4.7-4.7z" fill="#3762cc"/><path d="m176 136.503h-96c-3.314 0-6-2.686-6-6v-18c0-3.314 2.686-6 6-6h96c3.314 0 6 2.686 6 6v18c0 3.313-2.686 6-6 6z" fill="#6bdddd"/><path d="m126 126.315h-43.625c-1.105 0-2-.895-2-2v-5.625c0-1.105.895-2 2-2h43.625c1.105 0 2 .895 2 2v5.625c0 1.105-.895 2-2 2z" fill="#f9cfcf"/><path d="m154.688 124.313h-4.063c-.552 0-1-.448-1-1v-4.063c0-.552.448-1 1-1h4.063c.552 0 1 .448 1 1v4.063c0 .552-.448 1-1 1z" fill="#f9a7a7"/><path d="m164.688 124.313h-4.063c-.552 0-1-.448-1-1v-4.063c0-.552.448-1 1-1h4.063c.552 0 1 .448 1 1v4.063c0 .552-.448 1-1 1z" fill="#f9a7a7"/><path d="m174.688 124.313h-4.063c-.552 0-1-.448-1-1v-4.063c0-.552.448-1 1-1h4.063c.552 0 1 .448 1 1v4.063c0 .552-.448 1-1 1z" fill="#f9a7a7"/><path d="m176 138.503h-96c-4.411 0-8-3.589-8-8v-18c0-4.411 3.589-8 8-8h96c4.411 0 8 3.589 8 8v18c0 4.411-3.589 8-8 8zm-96-30c-2.206 0-4 1.794-4 4v18c0 2.206 1.794 4 4 4h96c2.206 0 4-1.794 4-4v-18c0-2.206-1.794-4-4-4z" fill="#3762cc"/><path d="m176 166.503h-96c-3.314 0-6-2.686-6-6v-18c0-3.314 2.686-6 6-6h96c3.314 0 6 2.686 6 6v18c0 3.313-2.686 6-6 6z" fill="#4671c6"/><path d="m126 156.315h-43.625c-1.105 0-2-.895-2-2v-5.625c0-1.105.895-2 2-2h43.625c1.105 0 2 .895 2 2v5.625c0 1.105-.895 2-2 2z" fill="#f9cfcf"/><path d="m154.688 154.313h-4.063c-.552 0-1-.448-1-1v-4.063c0-.552.448-1 1-1h4.063c.552 0 1 .448 1 1v4.063c0 .552-.448 1-1 1z" fill="#f9a7a7"/><path d="m164.688 154.313h-4.063c-.552 0-1-.448-1-1v-4.063c0-.552.448-1 1-1h4.063c.552 0 1 .448 1 1v4.063c0 .552-.448 1-1 1z" fill="#f9a7a7"/><path d="m174.688 154.313h-4.063c-.552 0-1-.448-1-1v-4.063c0-.552.448-1 1-1h4.063c.552 0 1 .448 1 1v4.063c0 .552-.448 1-1 1z" fill="#f9a7a7"/><path d="m176 168.503h-96c-4.411 0-8-3.589-8-8v-18c0-4.411 3.589-8 8-8h96c4.411 0 8 3.589 8 8v18c0 4.411-3.589 8-8 8zm-96-30c-2.206 0-4 1.794-4 4v18c0 2.206 1.794 4 4 4h96c2.206 0 4-1.794 4-4v-18c0-2.206-1.794-4-4-4z" fill="#3762cc"/><path d="m176 196.503h-96c-3.314 0-6-2.686-6-6v-18c0-3.314 2.686-6 6-6h96c3.314 0 6 2.686 6 6v18c0 3.313-2.686 6-6 6z" fill="#6bdddd"/><path d="m126 186.315h-43.625c-1.105 0-2-.895-2-2v-5.625c0-1.105.895-2 2-2h43.625c1.105 0 2 .895 2 2v5.625c0 1.105-.895 2-2 2z" fill="#f9cfcf"/><path d="m154.688 184.313h-4.063c-.552 0-1-.448-1-1v-4.063c0-.552.448-1 1-1h4.063c.552 0 1 .448 1 1v4.063c0 .552-.448 1-1 1z" fill="#f9a7a7"/><path d="m164.688 184.313h-4.063c-.552 0-1-.448-1-1v-4.063c0-.552.448-1 1-1h4.063c.552 0 1 .448 1 1v4.063c0 .552-.448 1-1 1z" fill="#f9a7a7"/><path d="m174.688 184.313h-4.063c-.552 0-1-.448-1-1v-4.063c0-.552.448-1 1-1h4.063c.552 0 1 .448 1 1v4.063c0 .552-.448 1-1 1z" fill="#f9a7a7"/><path d="m176 198.503h-96c-4.411 0-8-3.589-8-8v-18c0-4.411 3.589-8 8-8h96c4.411 0 8 3.589 8 8v18c0 4.411-3.589 8-8 8zm-96-30c-2.206 0-4 1.794-4 4v18c0 2.206 1.794 4 4 4h96c2.206 0 4-1.794 4-4v-18c0-2.206-1.794-4-4-4z" fill="#3762cc"/></svg>